<mxfile host="www.draw.io" modified="2020-01-16T12:49:25.124Z" agent="Mozilla/5.0 (Macintosh; Intel Mac OS X 10_14_0) AppleWebKit/537.36 (KHTML, like Gecko) Chrome/79.0.3945.88 Safari/537.36" etag="q4li1LqANnh72nu_l9Jh" version="12.5.4" type="github">
  <diagram id="C5RBs43oDa-KdzZeNtuy" name="Page-1">
    <mxGraphModel dx="1773" dy="1760" grid="1" gridSize="10" guides="1" tooltips="1" connect="1" arrows="1" fold="1" page="1" pageScale="1" pageWidth="827" pageHeight="1169" math="0" shadow="0">
      <root>
        <mxCell id="WIyWlLk6GJQsqaUBKTNV-0"/>
        <mxCell id="WIyWlLk6GJQsqaUBKTNV-1" parent="WIyWlLk6GJQsqaUBKTNV-0"/>
        <mxCell id="9fP7N4kS7fGpAyiYnjO7-0" value="tms_lnp_lane" style="swimlane;fontStyle=0;childLayout=stackLayout;horizontal=1;startSize=22;horizontalStack=0;resizeParent=1;resizeParentMax=0;resizeLast=0;collapsible=1;marginBottom=0;swimlaneFillColor=#ffffff;align=center;fontSize=14;fillColor=#f5f5f5;strokeColor=#666666;fontColor=#333333;" parent="WIyWlLk6GJQsqaUBKTNV-1" vertex="1">
          <mxGeometry x="50" y="46" width="260" height="568" as="geometry"/>
        </mxCell>
        <mxCell id="9fP7N4kS7fGpAyiYnjO7-1" value="id                                       数据主键" style="text;spacingLeft=4;spacingRight=4;overflow=hidden;rotatable=0;points=[[0,0.5],[1,0.5]];portConstraint=eastwest;fontSize=12;" parent="9fP7N4kS7fGpAyiYnjO7-0" vertex="1">
          <mxGeometry y="22" width="260" height="26" as="geometry"/>
        </mxCell>
        <mxCell id="ztJhW-txVgWMC0Fm-MHa-25" value="gmt_create                        创建时间" style="text;spacingLeft=4;spacingRight=4;overflow=hidden;rotatable=0;points=[[0,0.5],[1,0.5]];portConstraint=eastwest;fontSize=12;fillColor=#f5f5f5;strokeColor=#666666;fontColor=#333333;" parent="9fP7N4kS7fGpAyiYnjO7-0" vertex="1">
          <mxGeometry y="48" width="260" height="26" as="geometry"/>
        </mxCell>
        <mxCell id="ztJhW-txVgWMC0Fm-MHa-26" value="gmt_modified                    修改时间" style="text;spacingLeft=4;spacingRight=4;overflow=hidden;rotatable=0;points=[[0,0.5],[1,0.5]];portConstraint=eastwest;fontSize=12;fillColor=#f5f5f5;strokeColor=#666666;fontColor=#333333;" parent="9fP7N4kS7fGpAyiYnjO7-0" vertex="1">
          <mxGeometry y="74" width="260" height="26" as="geometry"/>
        </mxCell>
        <mxCell id="ztJhW-txVgWMC0Fm-MHa-24" value="line_code                          线路编码（MD5）" style="text;spacingLeft=4;spacingRight=4;overflow=hidden;rotatable=0;points=[[0,0.5],[1,0.5]];portConstraint=eastwest;fontSize=12;fillColor=#f5f5f5;strokeColor=#666666;fontColor=#333333;" parent="9fP7N4kS7fGpAyiYnjO7-0" vertex="1">
          <mxGeometry y="100" width="260" height="26" as="geometry"/>
        </mxCell>
        <mxCell id="9fP7N4kS7fGpAyiYnjO7-6" value="site_id                               租户" style="text;spacingLeft=4;spacingRight=4;overflow=hidden;rotatable=0;points=[[0,0.5],[1,0.5]];portConstraint=eastwest;fontSize=12;perimeterSpacing=1;fillColor=#f5f5f5;strokeColor=#666666;fontColor=#333333;" parent="9fP7N4kS7fGpAyiYnjO7-0" vertex="1">
          <mxGeometry y="126" width="260" height="26" as="geometry"/>
        </mxCell>
        <mxCell id="ztJhW-txVgWMC0Fm-MHa-15" value="biz_type                            业务模式" style="text;spacingLeft=4;spacingRight=4;overflow=hidden;rotatable=0;points=[[0,0.5],[1,0.5]];portConstraint=eastwest;fontSize=12;perimeterSpacing=1;fillColor=#f5f5f5;strokeColor=#666666;fontColor=#333333;" parent="9fP7N4kS7fGpAyiYnjO7-0" vertex="1">
          <mxGeometry y="152" width="260" height="26" as="geometry"/>
        </mxCell>
        <mxCell id="9fP7N4kS7fGpAyiYnjO7-2" value="from_res_code                 起始资源编码" style="text;spacingLeft=4;spacingRight=4;overflow=hidden;rotatable=0;points=[[0,0.5],[1,0.5]];portConstraint=eastwest;fontSize=12;fillColor=#f5f5f5;strokeColor=#666666;fontColor=#333333;" parent="9fP7N4kS7fGpAyiYnjO7-0" vertex="1">
          <mxGeometry y="178" width="260" height="26" as="geometry"/>
        </mxCell>
        <mxCell id="9fP7N4kS7fGpAyiYnjO7-3" value="from_wave_code              起始波次编码" style="text;strokeColor=#666666;fillColor=#f5f5f5;spacingLeft=4;spacingRight=4;overflow=hidden;rotatable=0;points=[[0,0.5],[1,0.5]];portConstraint=eastwest;fontSize=12;fontColor=#333333;" parent="9fP7N4kS7fGpAyiYnjO7-0" vertex="1">
          <mxGeometry y="204" width="260" height="26" as="geometry"/>
        </mxCell>
        <mxCell id="9fP7N4kS7fGpAyiYnjO7-4" value="from_division_id               起始地址" style="text;strokeColor=#666666;fillColor=#f5f5f5;spacingLeft=4;spacingRight=4;overflow=hidden;rotatable=0;points=[[0,0.5],[1,0.5]];portConstraint=eastwest;fontSize=12;fontColor=#333333;" parent="9fP7N4kS7fGpAyiYnjO7-0" vertex="1">
          <mxGeometry y="230" width="260" height="26" as="geometry"/>
        </mxCell>
        <mxCell id="9fP7N4kS7fGpAyiYnjO7-5" value="to_res_code                     目的资源编码" style="text;strokeColor=#666666;fillColor=#f5f5f5;spacingLeft=4;spacingRight=4;overflow=hidden;rotatable=0;points=[[0,0.5],[1,0.5]];portConstraint=eastwest;fontSize=12;fontColor=#333333;" parent="9fP7N4kS7fGpAyiYnjO7-0" vertex="1">
          <mxGeometry y="256" width="260" height="26" as="geometry"/>
        </mxCell>
        <mxCell id="ztJhW-txVgWMC0Fm-MHa-39" value="to_wave_code                  目的波次编码" style="text;strokeColor=#666666;fillColor=#f5f5f5;spacingLeft=4;spacingRight=4;overflow=hidden;rotatable=0;points=[[0,0.5],[1,0.5]];portConstraint=eastwest;fontSize=12;fontColor=#333333;" parent="9fP7N4kS7fGpAyiYnjO7-0" vertex="1">
          <mxGeometry y="282" width="260" height="26" as="geometry"/>
        </mxCell>
        <mxCell id="ztJhW-txVgWMC0Fm-MHa-38" value="to_division_id                   目的地址信息" style="text;spacingLeft=4;spacingRight=4;overflow=hidden;rotatable=0;points=[[0,0.5],[1,0.5]];portConstraint=eastwest;fontSize=12;fillColor=#f5f5f5;strokeColor=#666666;fontColor=#333333;" parent="9fP7N4kS7fGpAyiYnjO7-0" vertex="1">
          <mxGeometry y="308" width="260" height="26" as="geometry"/>
        </mxCell>
        <mxCell id="-KNa5amnTnH-xxa5wo9g-61" value="capacity                            容量" style="text;spacingLeft=4;spacingRight=4;overflow=hidden;rotatable=0;points=[[0,0.5],[1,0.5]];portConstraint=eastwest;fontSize=12;fillColor=#f5f5f5;strokeColor=#666666;fontColor=#333333;" vertex="1" parent="9fP7N4kS7fGpAyiYnjO7-0">
          <mxGeometry y="334" width="260" height="26" as="geometry"/>
        </mxCell>
        <mxCell id="ztJhW-txVgWMC0Fm-MHa-37" value="cutoff_second                   截单时间" style="text;strokeColor=#666666;fillColor=#f5f5f5;spacingLeft=4;spacingRight=4;overflow=hidden;rotatable=0;points=[[0,0.5],[1,0.5]];portConstraint=eastwest;fontSize=12;fontColor=#333333;" parent="9fP7N4kS7fGpAyiYnjO7-0" vertex="1">
          <mxGeometry y="360" width="260" height="26" as="geometry"/>
        </mxCell>
        <mxCell id="-KNa5amnTnH-xxa5wo9g-25" value="supplier_code                   配送服务商" style="text;strokeColor=#666666;fillColor=#f5f5f5;spacingLeft=4;spacingRight=4;overflow=hidden;rotatable=0;points=[[0,0.5],[1,0.5]];portConstraint=eastwest;fontSize=12;fontColor=#333333;" vertex="1" parent="9fP7N4kS7fGpAyiYnjO7-0">
          <mxGeometry y="386" width="260" height="26" as="geometry"/>
        </mxCell>
        <mxCell id="-KNa5amnTnH-xxa5wo9g-26" value="time_zone                         时区" style="text;strokeColor=#666666;fillColor=#f5f5f5;spacingLeft=4;spacingRight=4;overflow=hidden;rotatable=0;points=[[0,0.5],[1,0.5]];portConstraint=eastwest;fontSize=12;fontColor=#333333;" vertex="1" parent="9fP7N4kS7fGpAyiYnjO7-0">
          <mxGeometry y="412" width="260" height="26" as="geometry"/>
        </mxCell>
        <mxCell id="-KNa5amnTnH-xxa5wo9g-56" value="timing_second                  线路时效" style="text;strokeColor=#666666;fillColor=#f5f5f5;spacingLeft=4;spacingRight=4;overflow=hidden;rotatable=0;points=[[0,0.5],[1,0.5]];portConstraint=eastwest;fontSize=12;fontColor=#333333;" vertex="1" parent="9fP7N4kS7fGpAyiYnjO7-0">
          <mxGeometry y="438" width="260" height="26" as="geometry"/>
        </mxCell>
        <mxCell id="-KNa5amnTnH-xxa5wo9g-27" value="status                                状态" style="text;strokeColor=#666666;fillColor=#f5f5f5;spacingLeft=4;spacingRight=4;overflow=hidden;rotatable=0;points=[[0,0.5],[1,0.5]];portConstraint=eastwest;fontSize=12;fontColor=#333333;" vertex="1" parent="9fP7N4kS7fGpAyiYnjO7-0">
          <mxGeometry y="464" width="260" height="26" as="geometry"/>
        </mxCell>
        <mxCell id="-KNa5amnTnH-xxa5wo9g-28" value="ns                                      所属空间" style="text;strokeColor=#666666;fillColor=#f5f5f5;spacingLeft=4;spacingRight=4;overflow=hidden;rotatable=0;points=[[0,0.5],[1,0.5]];portConstraint=eastwest;fontSize=12;fontColor=#333333;" vertex="1" parent="9fP7N4kS7fGpAyiYnjO7-0">
          <mxGeometry y="490" width="260" height="26" as="geometry"/>
        </mxCell>
        <mxCell id="-KNa5amnTnH-xxa5wo9g-29" value="batch_id                            变更批次" style="text;strokeColor=#666666;fillColor=#f5f5f5;spacingLeft=4;spacingRight=4;overflow=hidden;rotatable=0;points=[[0,0.5],[1,0.5]];portConstraint=eastwest;fontSize=12;fontColor=#333333;" vertex="1" parent="9fP7N4kS7fGpAyiYnjO7-0">
          <mxGeometry y="516" width="260" height="26" as="geometry"/>
        </mxCell>
        <mxCell id="-KNa5amnTnH-xxa5wo9g-30" value="feature                              扩展属性" style="text;strokeColor=#666666;fillColor=#f5f5f5;spacingLeft=4;spacingRight=4;overflow=hidden;rotatable=0;points=[[0,0.5],[1,0.5]];portConstraint=eastwest;fontSize=12;fontColor=#333333;" vertex="1" parent="9fP7N4kS7fGpAyiYnjO7-0">
          <mxGeometry y="542" width="260" height="26" as="geometry"/>
        </mxCell>
        <mxCell id="9fP7N4kS7fGpAyiYnjO7-12" value="tms_lnp_lane_attr" style="swimlane;fontStyle=0;childLayout=stackLayout;horizontal=1;startSize=22;fillColor=none;horizontalStack=0;resizeParent=1;resizeParentMax=0;resizeLast=0;collapsible=1;marginBottom=0;swimlaneFillColor=#ffffff;align=center;fontSize=12;" parent="WIyWlLk6GJQsqaUBKTNV-1" vertex="1">
          <mxGeometry x="420" y="140" width="240" height="204" as="geometry"/>
        </mxCell>
        <mxCell id="9fP7N4kS7fGpAyiYnjO7-13" value="id                               数据主键" style="text;strokeColor=#666666;fillColor=#f5f5f5;spacingLeft=4;spacingRight=4;overflow=hidden;rotatable=0;points=[[0,0.5],[1,0.5]];portConstraint=eastwest;fontSize=12;fontColor=#333333;" parent="9fP7N4kS7fGpAyiYnjO7-12" vertex="1">
          <mxGeometry y="22" width="240" height="26" as="geometry"/>
        </mxCell>
        <mxCell id="ztJhW-txVgWMC0Fm-MHa-98" value="gmt_create                创建时间" style="text;strokeColor=#666666;fillColor=#f5f5f5;spacingLeft=4;spacingRight=4;overflow=hidden;rotatable=0;points=[[0,0.5],[1,0.5]];portConstraint=eastwest;fontSize=12;fontColor=#333333;" parent="9fP7N4kS7fGpAyiYnjO7-12" vertex="1">
          <mxGeometry y="48" width="240" height="26" as="geometry"/>
        </mxCell>
        <mxCell id="ztJhW-txVgWMC0Fm-MHa-99" value="gmt_modified            修改时间" style="text;strokeColor=#666666;fillColor=#f5f5f5;spacingLeft=4;spacingRight=4;overflow=hidden;rotatable=0;points=[[0,0.5],[1,0.5]];portConstraint=eastwest;fontSize=12;fontColor=#333333;" parent="9fP7N4kS7fGpAyiYnjO7-12" vertex="1">
          <mxGeometry y="74" width="240" height="26" as="geometry"/>
        </mxCell>
        <mxCell id="ztJhW-txVgWMC0Fm-MHa-97" value="lane_id                      lane线路id" style="text;strokeColor=#666666;fillColor=#f5f5f5;spacingLeft=4;spacingRight=4;overflow=hidden;rotatable=0;points=[[0,0.5],[1,0.5]];portConstraint=eastwest;fontSize=12;fontColor=#333333;" parent="9fP7N4kS7fGpAyiYnjO7-12" vertex="1">
          <mxGeometry y="100" width="240" height="26" as="geometry"/>
        </mxCell>
        <mxCell id="9fP7N4kS7fGpAyiYnjO7-14" value="attr_type                    属性类型" style="text;strokeColor=#666666;fillColor=#f5f5f5;spacingLeft=4;spacingRight=4;overflow=hidden;rotatable=0;points=[[0,0.5],[1,0.5]];portConstraint=eastwest;fontSize=12;fontColor=#333333;" parent="9fP7N4kS7fGpAyiYnjO7-12" vertex="1">
          <mxGeometry y="126" width="240" height="26" as="geometry"/>
        </mxCell>
        <mxCell id="ztJhW-txVgWMC0Fm-MHa-0" value="attr_value                  属性值" style="text;strokeColor=#666666;fillColor=#f5f5f5;spacingLeft=4;spacingRight=4;overflow=hidden;rotatable=0;points=[[0,0.5],[1,0.5]];portConstraint=eastwest;fontSize=12;fontColor=#333333;" parent="9fP7N4kS7fGpAyiYnjO7-12" vertex="1">
          <mxGeometry y="152" width="240" height="26" as="geometry"/>
        </mxCell>
        <mxCell id="ztJhW-txVgWMC0Fm-MHa-14" value="feature                      属性值扩展" style="text;strokeColor=#666666;fillColor=#f5f5f5;spacingLeft=4;spacingRight=4;overflow=hidden;rotatable=0;points=[[0,0.5],[1,0.5]];portConstraint=eastwest;fontSize=12;fontColor=#333333;" parent="9fP7N4kS7fGpAyiYnjO7-12" vertex="1">
          <mxGeometry y="178" width="240" height="26" as="geometry"/>
        </mxCell>
        <mxCell id="9fP7N4kS7fGpAyiYnjO7-56" value="" style="endArrow=none;dashed=1;html=1;" parent="WIyWlLk6GJQsqaUBKTNV-1" edge="1">
          <mxGeometry width="50" height="50" relative="1" as="geometry">
            <mxPoint x="-206" y="-380" as="sourcePoint"/>
            <mxPoint x="1126" y="-380" as="targetPoint"/>
          </mxGeometry>
        </mxCell>
        <mxCell id="9fP7N4kS7fGpAyiYnjO7-58" value="&lt;font style=&quot;font-size: 23px&quot;&gt;能力网络模型&lt;/font&gt;" style="text;html=1;align=center;verticalAlign=middle;resizable=0;points=[];autosize=1;" parent="WIyWlLk6GJQsqaUBKTNV-1" vertex="1">
          <mxGeometry x="-827" y="280" width="150" height="20" as="geometry"/>
        </mxCell>
        <mxCell id="ztJhW-txVgWMC0Fm-MHa-44" value="&lt;div&gt;&lt;font style=&quot;font-size: 16px&quot; color=&quot;#ff0000&quot;&gt;模型说明&lt;/font&gt;&lt;/div&gt;&lt;div&gt;&lt;font style=&quot;font-size: 16px&quot; color=&quot;#ff0000&quot;&gt;&lt;br&gt;&lt;/font&gt;&lt;/div&gt;&lt;div&gt;biz_type: G、LAZAMART、NORMAL&lt;/div&gt;&lt;div&gt;from_res_code 起始点信息 保留字段（逆向场景可能使用）&lt;/div&gt;&lt;div&gt;from_wave_code 和 to_wave_code作为模型保留字段&lt;/div&gt;&lt;div&gt;supplier_code是配送服务商(3pl服务商信息) 。目前lel的场景不需要&lt;/div&gt;&lt;div&gt;line_code生成规则: 按照聚合维度MD5&lt;/div&gt;" style="text;html=1;align=left;verticalAlign=middle;resizable=0;points=[];autosize=1;" parent="WIyWlLk6GJQsqaUBKTNV-1" vertex="1">
          <mxGeometry x="40" y="650" width="370" height="110" as="geometry"/>
        </mxCell>
        <mxCell id="ztJhW-txVgWMC0Fm-MHa-45" value="global_ability_change_batch&#xa;变更批次表 " style="swimlane;fontStyle=0;childLayout=stackLayout;horizontal=1;startSize=22;horizontalStack=0;resizeParent=1;resizeParentMax=0;resizeLast=0;collapsible=1;marginBottom=0;swimlaneFillColor=#ffffff;align=center;fontSize=12;fillColor=#f5f5f5;strokeColor=#666666;fontColor=#333333;" parent="WIyWlLk6GJQsqaUBKTNV-1" vertex="1">
          <mxGeometry x="120" y="-240" width="260" height="178" as="geometry"/>
        </mxCell>
        <mxCell id="ztJhW-txVgWMC0Fm-MHa-46" value="id                                       数据主键" style="text;spacingLeft=4;spacingRight=4;overflow=hidden;rotatable=0;points=[[0,0.5],[1,0.5]];portConstraint=eastwest;fontSize=12;" parent="ztJhW-txVgWMC0Fm-MHa-45" vertex="1">
          <mxGeometry y="22" width="260" height="26" as="geometry"/>
        </mxCell>
        <mxCell id="ztJhW-txVgWMC0Fm-MHa-47" value="gmt_create                        创建时间" style="text;spacingLeft=4;spacingRight=4;overflow=hidden;rotatable=0;points=[[0,0.5],[1,0.5]];portConstraint=eastwest;fontSize=12;fillColor=#f5f5f5;strokeColor=#666666;fontColor=#333333;" parent="ztJhW-txVgWMC0Fm-MHa-45" vertex="1">
          <mxGeometry y="48" width="260" height="26" as="geometry"/>
        </mxCell>
        <mxCell id="ztJhW-txVgWMC0Fm-MHa-48" value="gmt_modified                    修改时间" style="text;spacingLeft=4;spacingRight=4;overflow=hidden;rotatable=0;points=[[0,0.5],[1,0.5]];portConstraint=eastwest;fontSize=12;fillColor=#f5f5f5;strokeColor=#666666;fontColor=#333333;" parent="ztJhW-txVgWMC0Fm-MHa-45" vertex="1">
          <mxGeometry y="74" width="260" height="26" as="geometry"/>
        </mxCell>
        <mxCell id="ztJhW-txVgWMC0Fm-MHa-61" value="modifier                             修改人" style="text;spacingLeft=4;spacingRight=4;overflow=hidden;rotatable=0;points=[[0,0.5],[1,0.5]];portConstraint=eastwest;fontSize=12;fillColor=#f5f5f5;strokeColor=#666666;fontColor=#333333;" parent="ztJhW-txVgWMC0Fm-MHa-45" vertex="1">
          <mxGeometry y="100" width="260" height="26" as="geometry"/>
        </mxCell>
        <mxCell id="ztJhW-txVgWMC0Fm-MHa-49" value="status                                 状态" style="text;spacingLeft=4;spacingRight=4;overflow=hidden;rotatable=0;points=[[0,0.5],[1,0.5]];portConstraint=eastwest;fontSize=12;fillColor=#f5f5f5;strokeColor=#666666;fontColor=#333333;" parent="ztJhW-txVgWMC0Fm-MHa-45" vertex="1">
          <mxGeometry y="126" width="260" height="26" as="geometry"/>
        </mxCell>
        <mxCell id="ztJhW-txVgWMC0Fm-MHa-60" value="feature                               扩展" style="text;strokeColor=#666666;fillColor=#f5f5f5;spacingLeft=4;spacingRight=4;overflow=hidden;rotatable=0;points=[[0,0.5],[1,0.5]];portConstraint=eastwest;fontSize=12;fontColor=#333333;" parent="ztJhW-txVgWMC0Fm-MHa-45" vertex="1">
          <mxGeometry y="152" width="260" height="26" as="geometry"/>
        </mxCell>
        <mxCell id="ztJhW-txVgWMC0Fm-MHa-63" value="global_ability_batch_detail&#xa;分布式任务执行表 " style="swimlane;fontStyle=0;childLayout=stackLayout;horizontal=1;startSize=22;horizontalStack=0;resizeParent=1;resizeParentMax=0;resizeLast=0;collapsible=1;marginBottom=0;swimlaneFillColor=#ffffff;align=center;fontSize=12;fillColor=#f5f5f5;strokeColor=#666666;fontColor=#333333;" parent="WIyWlLk6GJQsqaUBKTNV-1" vertex="1">
          <mxGeometry x="555" y="-270" width="260" height="178" as="geometry"/>
        </mxCell>
        <mxCell id="ztJhW-txVgWMC0Fm-MHa-64" value="id                                       数据主键" style="text;spacingLeft=4;spacingRight=4;overflow=hidden;rotatable=0;points=[[0,0.5],[1,0.5]];portConstraint=eastwest;fontSize=12;" parent="ztJhW-txVgWMC0Fm-MHa-63" vertex="1">
          <mxGeometry y="22" width="260" height="26" as="geometry"/>
        </mxCell>
        <mxCell id="ztJhW-txVgWMC0Fm-MHa-65" value="gmt_create                        创建时间" style="text;spacingLeft=4;spacingRight=4;overflow=hidden;rotatable=0;points=[[0,0.5],[1,0.5]];portConstraint=eastwest;fontSize=12;fillColor=#f5f5f5;strokeColor=#666666;fontColor=#333333;" parent="ztJhW-txVgWMC0Fm-MHa-63" vertex="1">
          <mxGeometry y="48" width="260" height="26" as="geometry"/>
        </mxCell>
        <mxCell id="ztJhW-txVgWMC0Fm-MHa-66" value="gmt_modified                    修改时间" style="text;spacingLeft=4;spacingRight=4;overflow=hidden;rotatable=0;points=[[0,0.5],[1,0.5]];portConstraint=eastwest;fontSize=12;fillColor=#f5f5f5;strokeColor=#666666;fontColor=#333333;" parent="ztJhW-txVgWMC0Fm-MHa-63" vertex="1">
          <mxGeometry y="74" width="260" height="26" as="geometry"/>
        </mxCell>
        <mxCell id="ztJhW-txVgWMC0Fm-MHa-67" value="batch_id                            变更批次" style="text;spacingLeft=4;spacingRight=4;overflow=hidden;rotatable=0;points=[[0,0.5],[1,0.5]];portConstraint=eastwest;fontSize=12;fillColor=#f5f5f5;strokeColor=#666666;fontColor=#333333;" parent="ztJhW-txVgWMC0Fm-MHa-63" vertex="1">
          <mxGeometry y="100" width="260" height="26" as="geometry"/>
        </mxCell>
        <mxCell id="ztJhW-txVgWMC0Fm-MHa-68" value="status                                 状态" style="text;spacingLeft=4;spacingRight=4;overflow=hidden;rotatable=0;points=[[0,0.5],[1,0.5]];portConstraint=eastwest;fontSize=12;fillColor=#f5f5f5;strokeColor=#666666;fontColor=#333333;" parent="ztJhW-txVgWMC0Fm-MHa-63" vertex="1">
          <mxGeometry y="126" width="260" height="26" as="geometry"/>
        </mxCell>
        <mxCell id="ztJhW-txVgWMC0Fm-MHa-69" value="feature                               扩展" style="text;strokeColor=#666666;fillColor=#f5f5f5;spacingLeft=4;spacingRight=4;overflow=hidden;rotatable=0;points=[[0,0.5],[1,0.5]];portConstraint=eastwest;fontSize=12;fontColor=#333333;" parent="ztJhW-txVgWMC0Fm-MHa-63" vertex="1">
          <mxGeometry y="152" width="260" height="26" as="geometry"/>
        </mxCell>
        <mxCell id="ztJhW-txVgWMC0Fm-MHa-83" value="" style="endArrow=ERmandOne;html=1;fontSize=12;entryX=1;entryY=0.5;entryDx=0;entryDy=0;startArrow=ERzeroToMany;startFill=1;endFill=0;" parent="WIyWlLk6GJQsqaUBKTNV-1" target="ztJhW-txVgWMC0Fm-MHa-48" edge="1" source="ztJhW-txVgWMC0Fm-MHa-63">
          <mxGeometry width="50" height="50" relative="1" as="geometry">
            <mxPoint x="-25" y="257" as="sourcePoint"/>
            <mxPoint y="190" as="targetPoint"/>
          </mxGeometry>
        </mxCell>
        <mxCell id="ztJhW-txVgWMC0Fm-MHa-93" value="&lt;div&gt;&lt;font style=&quot;font-size: 16px&quot; color=&quot;#ff0000&quot;&gt;模型说明&lt;/font&gt;&lt;/div&gt;&lt;div&gt;change_batch表--变更的批次管理&lt;/div&gt;&lt;div&gt;batch_detail 表--- 任务执行拆分的表，用来做分布式任务&lt;/div&gt;&lt;div&gt;分布式的思路：用聚合的字段维度来做任务切片，投递metaq消息&lt;/div&gt;&lt;div&gt;&lt;br&gt;&lt;/div&gt;" style="text;html=1;align=left;verticalAlign=middle;resizable=0;points=[];autosize=1;" parent="WIyWlLk6GJQsqaUBKTNV-1" vertex="1">
          <mxGeometry x="-410" y="630" width="360" height="80" as="geometry"/>
        </mxCell>
        <mxCell id="ztJhW-txVgWMC0Fm-MHa-100" value="tms_lnp_solution " style="swimlane;fontStyle=0;childLayout=stackLayout;horizontal=1;startSize=22;horizontalStack=0;resizeParent=1;resizeParentMax=0;resizeLast=0;collapsible=1;marginBottom=0;swimlaneFillColor=#ffffff;align=center;fontSize=12;fillColor=#f5f5f5;strokeColor=#666666;fontColor=#333333;" parent="WIyWlLk6GJQsqaUBKTNV-1" vertex="1">
          <mxGeometry x="50" y="-680" width="260" height="256" as="geometry"/>
        </mxCell>
        <mxCell id="ztJhW-txVgWMC0Fm-MHa-101" value="id                                       数据主键" style="text;spacingLeft=4;spacingRight=4;overflow=hidden;rotatable=0;points=[[0,0.5],[1,0.5]];portConstraint=eastwest;fontSize=12;" parent="ztJhW-txVgWMC0Fm-MHa-100" vertex="1">
          <mxGeometry y="22" width="260" height="26" as="geometry"/>
        </mxCell>
        <mxCell id="ztJhW-txVgWMC0Fm-MHa-102" value="gmt_create                        创建时间" style="text;spacingLeft=4;spacingRight=4;overflow=hidden;rotatable=0;points=[[0,0.5],[1,0.5]];portConstraint=eastwest;fontSize=12;fillColor=#f5f5f5;strokeColor=#666666;fontColor=#333333;" parent="ztJhW-txVgWMC0Fm-MHa-100" vertex="1">
          <mxGeometry y="48" width="260" height="26" as="geometry"/>
        </mxCell>
        <mxCell id="ztJhW-txVgWMC0Fm-MHa-103" value="gmt_modified                     修改时间" style="text;spacingLeft=4;spacingRight=4;overflow=hidden;rotatable=0;points=[[0,0.5],[1,0.5]];portConstraint=eastwest;fontSize=12;fillColor=#f5f5f5;strokeColor=#666666;fontColor=#333333;" parent="ztJhW-txVgWMC0Fm-MHa-100" vertex="1">
          <mxGeometry y="74" width="260" height="26" as="geometry"/>
        </mxCell>
        <mxCell id="ztJhW-txVgWMC0Fm-MHa-104" value="modifier                              修改人" style="text;spacingLeft=4;spacingRight=4;overflow=hidden;rotatable=0;points=[[0,0.5],[1,0.5]];portConstraint=eastwest;fontSize=12;fillColor=#f5f5f5;strokeColor=#666666;fontColor=#333333;" parent="ztJhW-txVgWMC0Fm-MHa-100" vertex="1">
          <mxGeometry y="100" width="260" height="26" as="geometry"/>
        </mxCell>
        <mxCell id="ztJhW-txVgWMC0Fm-MHa-122" value="site_id                                 租户" style="text;spacingLeft=4;spacingRight=4;overflow=hidden;rotatable=0;points=[[0,0.5],[1,0.5]];portConstraint=eastwest;fontSize=12;fillColor=#f5f5f5;strokeColor=#666666;fontColor=#333333;" parent="ztJhW-txVgWMC0Fm-MHa-100" vertex="1">
          <mxGeometry y="126" width="260" height="26" as="geometry"/>
        </mxCell>
        <mxCell id="ztJhW-txVgWMC0Fm-MHa-105" value="solution_code                    解决方案编码" style="text;spacingLeft=4;spacingRight=4;overflow=hidden;rotatable=0;points=[[0,0.5],[1,0.5]];portConstraint=eastwest;fontSize=12;fillColor=#f5f5f5;strokeColor=#666666;fontColor=#333333;" parent="ztJhW-txVgWMC0Fm-MHa-100" vertex="1">
          <mxGeometry y="152" width="260" height="26" as="geometry"/>
        </mxCell>
        <mxCell id="ztJhW-txVgWMC0Fm-MHa-107" value="solution_name                   解决方案名称" style="text;spacingLeft=4;spacingRight=4;overflow=hidden;rotatable=0;points=[[0,0.5],[1,0.5]];portConstraint=eastwest;fontSize=12;fillColor=#f5f5f5;strokeColor=#666666;fontColor=#333333;" parent="ztJhW-txVgWMC0Fm-MHa-100" vertex="1">
          <mxGeometry y="178" width="260" height="26" as="geometry"/>
        </mxCell>
        <mxCell id="ztJhW-txVgWMC0Fm-MHa-108" value="solution_desc                    解决方案描述" style="text;spacingLeft=4;spacingRight=4;overflow=hidden;rotatable=0;points=[[0,0.5],[1,0.5]];portConstraint=eastwest;fontSize=12;fillColor=#f5f5f5;strokeColor=#666666;fontColor=#333333;" parent="ztJhW-txVgWMC0Fm-MHa-100" vertex="1">
          <mxGeometry y="204" width="260" height="26" as="geometry"/>
        </mxCell>
        <mxCell id="ztJhW-txVgWMC0Fm-MHa-106" value="feature                               扩展" style="text;strokeColor=#666666;fillColor=#f5f5f5;spacingLeft=4;spacingRight=4;overflow=hidden;rotatable=0;points=[[0,0.5],[1,0.5]];portConstraint=eastwest;fontSize=12;fontColor=#333333;" parent="ztJhW-txVgWMC0Fm-MHa-100" vertex="1">
          <mxGeometry y="230" width="260" height="26" as="geometry"/>
        </mxCell>
        <mxCell id="ztJhW-txVgWMC0Fm-MHa-109" value="tms_lnp_solution_rule " style="swimlane;fontStyle=0;childLayout=stackLayout;horizontal=1;startSize=22;horizontalStack=0;resizeParent=1;resizeParentMax=0;resizeLast=0;collapsible=1;marginBottom=0;swimlaneFillColor=#ffffff;align=center;fontSize=12;fillColor=#f5f5f5;strokeColor=#666666;fontColor=#333333;" parent="WIyWlLk6GJQsqaUBKTNV-1" vertex="1">
          <mxGeometry x="480" y="-640" width="260" height="204" as="geometry"/>
        </mxCell>
        <mxCell id="ztJhW-txVgWMC0Fm-MHa-110" value="id                                       数据主键" style="text;spacingLeft=4;spacingRight=4;overflow=hidden;rotatable=0;points=[[0,0.5],[1,0.5]];portConstraint=eastwest;fontSize=12;" parent="ztJhW-txVgWMC0Fm-MHa-109" vertex="1">
          <mxGeometry y="22" width="260" height="26" as="geometry"/>
        </mxCell>
        <mxCell id="ztJhW-txVgWMC0Fm-MHa-111" value="gmt_create                        创建时间" style="text;spacingLeft=4;spacingRight=4;overflow=hidden;rotatable=0;points=[[0,0.5],[1,0.5]];portConstraint=eastwest;fontSize=12;fillColor=#f5f5f5;strokeColor=#666666;fontColor=#333333;" parent="ztJhW-txVgWMC0Fm-MHa-109" vertex="1">
          <mxGeometry y="48" width="260" height="26" as="geometry"/>
        </mxCell>
        <mxCell id="ztJhW-txVgWMC0Fm-MHa-112" value="gmt_modified                     修改时间" style="text;spacingLeft=4;spacingRight=4;overflow=hidden;rotatable=0;points=[[0,0.5],[1,0.5]];portConstraint=eastwest;fontSize=12;fillColor=#f5f5f5;strokeColor=#666666;fontColor=#333333;" parent="ztJhW-txVgWMC0Fm-MHa-109" vertex="1">
          <mxGeometry y="74" width="260" height="26" as="geometry"/>
        </mxCell>
        <mxCell id="ztJhW-txVgWMC0Fm-MHa-113" value="modifier                              修改人" style="text;spacingLeft=4;spacingRight=4;overflow=hidden;rotatable=0;points=[[0,0.5],[1,0.5]];portConstraint=eastwest;fontSize=12;fillColor=#f5f5f5;strokeColor=#666666;fontColor=#333333;" parent="ztJhW-txVgWMC0Fm-MHa-109" vertex="1">
          <mxGeometry y="100" width="260" height="26" as="geometry"/>
        </mxCell>
        <mxCell id="ztJhW-txVgWMC0Fm-MHa-114" value="solution_code                    解决方案编码" style="text;spacingLeft=4;spacingRight=4;overflow=hidden;rotatable=0;points=[[0,0.5],[1,0.5]];portConstraint=eastwest;fontSize=12;fillColor=#f5f5f5;strokeColor=#666666;fontColor=#333333;" parent="ztJhW-txVgWMC0Fm-MHa-109" vertex="1">
          <mxGeometry y="126" width="260" height="26" as="geometry"/>
        </mxCell>
        <mxCell id="ztJhW-txVgWMC0Fm-MHa-115" value="rule_type                           规则类型" style="text;spacingLeft=4;spacingRight=4;overflow=hidden;rotatable=0;points=[[0,0.5],[1,0.5]];portConstraint=eastwest;fontSize=12;fillColor=#f5f5f5;strokeColor=#666666;fontColor=#333333;" parent="ztJhW-txVgWMC0Fm-MHa-109" vertex="1">
          <mxGeometry y="152" width="260" height="26" as="geometry"/>
        </mxCell>
        <mxCell id="ztJhW-txVgWMC0Fm-MHa-116" value="rule_value                         规则值" style="text;spacingLeft=4;spacingRight=4;overflow=hidden;rotatable=0;points=[[0,0.5],[1,0.5]];portConstraint=eastwest;fontSize=12;fillColor=#f5f5f5;strokeColor=#666666;fontColor=#333333;" parent="ztJhW-txVgWMC0Fm-MHa-109" vertex="1">
          <mxGeometry y="178" width="260" height="26" as="geometry"/>
        </mxCell>
        <mxCell id="ztJhW-txVgWMC0Fm-MHa-118" value="" style="edgeStyle=entityRelationEdgeStyle;fontSize=12;html=1;endArrow=ERzeroToMany;startArrow=ERmandOne;entryX=0;entryY=0.5;entryDx=0;entryDy=0;exitX=1;exitY=0.231;exitDx=0;exitDy=0;exitPerimeter=0;" parent="WIyWlLk6GJQsqaUBKTNV-1" source="ztJhW-txVgWMC0Fm-MHa-107" target="ztJhW-txVgWMC0Fm-MHa-113" edge="1">
          <mxGeometry width="100" height="100" relative="1" as="geometry">
            <mxPoint x="491" y="-83" as="sourcePoint"/>
            <mxPoint x="630" y="-250" as="targetPoint"/>
          </mxGeometry>
        </mxCell>
        <mxCell id="ztJhW-txVgWMC0Fm-MHa-120" value="&lt;div&gt;&lt;font style=&quot;font-size: 16px&quot; color=&quot;#ff0000&quot;&gt;模型说明&lt;/font&gt;&lt;/div&gt;&lt;div&gt;global_lnp_solution 用来定义解决方案的基本概念&lt;/div&gt;&lt;div&gt;solution_rule 用来定义解决方案的业务规则，&lt;/div&gt;&lt;div&gt;比如delivery_option = express就是express的业务解决方案&lt;/div&gt;" style="text;html=1;align=left;verticalAlign=middle;resizable=0;points=[];autosize=1;" parent="WIyWlLk6GJQsqaUBKTNV-1" vertex="1">
          <mxGeometry x="890" y="-560" width="330" height="60" as="geometry"/>
        </mxCell>
        <mxCell id="ztJhW-txVgWMC0Fm-MHa-121" value="&lt;font style=&quot;font-size: 23px&quot;&gt;解决方案模型&lt;/font&gt;" style="text;html=1;align=center;verticalAlign=middle;resizable=0;points=[];autosize=1;" parent="WIyWlLk6GJQsqaUBKTNV-1" vertex="1">
          <mxGeometry x="-360" y="-335" width="150" height="20" as="geometry"/>
        </mxCell>
        <mxCell id="-KNa5amnTnH-xxa5wo9g-2" value="tms_lnp_source_line" style="swimlane;fontStyle=0;childLayout=stackLayout;horizontal=1;startSize=22;horizontalStack=0;resizeParent=1;resizeParentMax=0;resizeLast=0;collapsible=1;marginBottom=0;swimlaneFillColor=#ffffff;align=center;fontSize=14;fillColor=#f5f5f5;strokeColor=#666666;fontColor=#333333;" vertex="1" parent="WIyWlLk6GJQsqaUBKTNV-1">
          <mxGeometry x="-360" y="52" width="260" height="516" as="geometry"/>
        </mxCell>
        <mxCell id="-KNa5amnTnH-xxa5wo9g-3" value="id                                       数据主键" style="text;spacingLeft=4;spacingRight=4;overflow=hidden;rotatable=0;points=[[0,0.5],[1,0.5]];portConstraint=eastwest;fontSize=12;" vertex="1" parent="-KNa5amnTnH-xxa5wo9g-2">
          <mxGeometry y="22" width="260" height="26" as="geometry"/>
        </mxCell>
        <mxCell id="-KNa5amnTnH-xxa5wo9g-4" value="gmt_create                        创建时间" style="text;spacingLeft=4;spacingRight=4;overflow=hidden;rotatable=0;points=[[0,0.5],[1,0.5]];portConstraint=eastwest;fontSize=12;fillColor=#f5f5f5;strokeColor=#666666;fontColor=#333333;" vertex="1" parent="-KNa5amnTnH-xxa5wo9g-2">
          <mxGeometry y="48" width="260" height="26" as="geometry"/>
        </mxCell>
        <mxCell id="-KNa5amnTnH-xxa5wo9g-5" value="gmt_modified                    修改时间" style="text;spacingLeft=4;spacingRight=4;overflow=hidden;rotatable=0;points=[[0,0.5],[1,0.5]];portConstraint=eastwest;fontSize=12;fillColor=#f5f5f5;strokeColor=#666666;fontColor=#333333;" vertex="1" parent="-KNa5amnTnH-xxa5wo9g-2">
          <mxGeometry y="74" width="260" height="26" as="geometry"/>
        </mxCell>
        <mxCell id="-KNa5amnTnH-xxa5wo9g-7" value="site_id                               租户" style="text;spacingLeft=4;spacingRight=4;overflow=hidden;rotatable=0;points=[[0,0.5],[1,0.5]];portConstraint=eastwest;fontSize=12;perimeterSpacing=1;fillColor=#f5f5f5;strokeColor=#666666;fontColor=#333333;" vertex="1" parent="-KNa5amnTnH-xxa5wo9g-2">
          <mxGeometry y="100" width="260" height="26" as="geometry"/>
        </mxCell>
        <mxCell id="-KNa5amnTnH-xxa5wo9g-6" value="code                                  线路编码" style="text;spacingLeft=4;spacingRight=4;overflow=hidden;rotatable=0;points=[[0,0.5],[1,0.5]];portConstraint=eastwest;fontSize=12;fillColor=#f5f5f5;strokeColor=#666666;fontColor=#333333;" vertex="1" parent="-KNa5amnTnH-xxa5wo9g-2">
          <mxGeometry y="126" width="260" height="26" as="geometry"/>
        </mxCell>
        <mxCell id="-KNa5amnTnH-xxa5wo9g-8" value="biz_type                            业务模式" style="text;spacingLeft=4;spacingRight=4;overflow=hidden;rotatable=0;points=[[0,0.5],[1,0.5]];portConstraint=eastwest;fontSize=12;perimeterSpacing=1;fillColor=#f5f5f5;strokeColor=#666666;fontColor=#333333;" vertex="1" parent="-KNa5amnTnH-xxa5wo9g-2">
          <mxGeometry y="152" width="260" height="26" as="geometry"/>
        </mxCell>
        <mxCell id="-KNa5amnTnH-xxa5wo9g-9" value="from_res_code                 起始资源编码" style="text;spacingLeft=4;spacingRight=4;overflow=hidden;rotatable=0;points=[[0,0.5],[1,0.5]];portConstraint=eastwest;fontSize=12;fillColor=#f5f5f5;strokeColor=#666666;fontColor=#333333;" vertex="1" parent="-KNa5amnTnH-xxa5wo9g-2">
          <mxGeometry y="178" width="260" height="26" as="geometry"/>
        </mxCell>
        <mxCell id="-KNa5amnTnH-xxa5wo9g-10" value="from_wave_code              起始波次编码" style="text;strokeColor=#666666;fillColor=#f5f5f5;spacingLeft=4;spacingRight=4;overflow=hidden;rotatable=0;points=[[0,0.5],[1,0.5]];portConstraint=eastwest;fontSize=12;fontColor=#333333;" vertex="1" parent="-KNa5amnTnH-xxa5wo9g-2">
          <mxGeometry y="204" width="260" height="26" as="geometry"/>
        </mxCell>
        <mxCell id="-KNa5amnTnH-xxa5wo9g-17" value="from_opt_type                  起始点操作模式" style="text;strokeColor=#666666;fillColor=#f5f5f5;spacingLeft=4;spacingRight=4;overflow=hidden;rotatable=0;points=[[0,0.5],[1,0.5]];portConstraint=eastwest;fontSize=12;fontColor=#333333;" vertex="1" parent="-KNa5amnTnH-xxa5wo9g-2">
          <mxGeometry y="230" width="260" height="26" as="geometry"/>
        </mxCell>
        <mxCell id="-KNa5amnTnH-xxa5wo9g-11" value="from_coverage                 起始覆盖区域" style="text;strokeColor=#666666;fillColor=#f5f5f5;spacingLeft=4;spacingRight=4;overflow=hidden;rotatable=0;points=[[0,0.5],[1,0.5]];portConstraint=eastwest;fontSize=12;fontColor=#333333;" vertex="1" parent="-KNa5amnTnH-xxa5wo9g-2">
          <mxGeometry y="256" width="260" height="26" as="geometry"/>
        </mxCell>
        <mxCell id="-KNa5amnTnH-xxa5wo9g-12" value="to_res_code                     目的资源编码" style="text;strokeColor=#666666;fillColor=#f5f5f5;spacingLeft=4;spacingRight=4;overflow=hidden;rotatable=0;points=[[0,0.5],[1,0.5]];portConstraint=eastwest;fontSize=12;fontColor=#333333;" vertex="1" parent="-KNa5amnTnH-xxa5wo9g-2">
          <mxGeometry y="282" width="260" height="26" as="geometry"/>
        </mxCell>
        <mxCell id="-KNa5amnTnH-xxa5wo9g-13" value="to_wave_code                  目的波次编码" style="text;strokeColor=#666666;fillColor=#f5f5f5;spacingLeft=4;spacingRight=4;overflow=hidden;rotatable=0;points=[[0,0.5],[1,0.5]];portConstraint=eastwest;fontSize=12;fontColor=#333333;" vertex="1" parent="-KNa5amnTnH-xxa5wo9g-2">
          <mxGeometry y="308" width="260" height="26" as="geometry"/>
        </mxCell>
        <mxCell id="-KNa5amnTnH-xxa5wo9g-14" value="to_coverage                     目的地覆盖区域" style="text;spacingLeft=4;spacingRight=4;overflow=hidden;rotatable=0;points=[[0,0.5],[1,0.5]];portConstraint=eastwest;fontSize=12;fillColor=#f5f5f5;strokeColor=#666666;fontColor=#333333;" vertex="1" parent="-KNa5amnTnH-xxa5wo9g-2">
          <mxGeometry y="334" width="260" height="26" as="geometry"/>
        </mxCell>
        <mxCell id="-KNa5amnTnH-xxa5wo9g-15" value="cutoff_second                   截单时间" style="text;strokeColor=#666666;fillColor=#f5f5f5;spacingLeft=4;spacingRight=4;overflow=hidden;rotatable=0;points=[[0,0.5],[1,0.5]];portConstraint=eastwest;fontSize=12;fontColor=#333333;" vertex="1" parent="-KNa5amnTnH-xxa5wo9g-2">
          <mxGeometry y="360" width="260" height="26" as="geometry"/>
        </mxCell>
        <mxCell id="-KNa5amnTnH-xxa5wo9g-18" value="delivery_option                 配送类型" style="text;strokeColor=#666666;fillColor=#f5f5f5;spacingLeft=4;spacingRight=4;overflow=hidden;rotatable=0;points=[[0,0.5],[1,0.5]];portConstraint=eastwest;fontSize=12;fontColor=#333333;" vertex="1" parent="-KNa5amnTnH-xxa5wo9g-2">
          <mxGeometry y="386" width="260" height="26" as="geometry"/>
        </mxCell>
        <mxCell id="-KNa5amnTnH-xxa5wo9g-19" value="capacity                            容量" style="text;strokeColor=#666666;fillColor=#f5f5f5;spacingLeft=4;spacingRight=4;overflow=hidden;rotatable=0;points=[[0,0.5],[1,0.5]];portConstraint=eastwest;fontSize=12;fontColor=#333333;" vertex="1" parent="-KNa5amnTnH-xxa5wo9g-2">
          <mxGeometry y="412" width="260" height="26" as="geometry"/>
        </mxCell>
        <mxCell id="-KNa5amnTnH-xxa5wo9g-20" value="time_zone                         时区" style="text;strokeColor=#666666;fillColor=#f5f5f5;spacingLeft=4;spacingRight=4;overflow=hidden;rotatable=0;points=[[0,0.5],[1,0.5]];portConstraint=eastwest;fontSize=12;fontColor=#333333;" vertex="1" parent="-KNa5amnTnH-xxa5wo9g-2">
          <mxGeometry y="438" width="260" height="26" as="geometry"/>
        </mxCell>
        <mxCell id="-KNa5amnTnH-xxa5wo9g-21" value="batch_id                            变更批次号                    " style="text;strokeColor=#666666;fillColor=#f5f5f5;spacingLeft=4;spacingRight=4;overflow=hidden;rotatable=0;points=[[0,0.5],[1,0.5]];portConstraint=eastwest;fontSize=12;fontColor=#333333;" vertex="1" parent="-KNa5amnTnH-xxa5wo9g-2">
          <mxGeometry y="464" width="260" height="26" as="geometry"/>
        </mxCell>
        <mxCell id="-KNa5amnTnH-xxa5wo9g-22" value="feature                              扩展属性                    " style="text;strokeColor=#666666;fillColor=#f5f5f5;spacingLeft=4;spacingRight=4;overflow=hidden;rotatable=0;points=[[0,0.5],[1,0.5]];portConstraint=eastwest;fontSize=12;fontColor=#333333;" vertex="1" parent="-KNa5amnTnH-xxa5wo9g-2">
          <mxGeometry y="490" width="260" height="26" as="geometry"/>
        </mxCell>
        <mxCell id="-KNa5amnTnH-xxa5wo9g-32" value="tms_lnp_ability_line--能力线路" style="swimlane;fontStyle=0;childLayout=stackLayout;horizontal=1;startSize=22;horizontalStack=0;resizeParent=1;resizeParentMax=0;resizeLast=0;collapsible=1;marginBottom=0;swimlaneFillColor=#ffffff;align=center;fontSize=14;fillColor=#f5f5f5;strokeColor=#666666;fontColor=#333333;" vertex="1" parent="WIyWlLk6GJQsqaUBKTNV-1">
          <mxGeometry x="810" y="20" width="260" height="646" as="geometry"/>
        </mxCell>
        <mxCell id="-KNa5amnTnH-xxa5wo9g-33" value="id                                       数据主键" style="text;spacingLeft=4;spacingRight=4;overflow=hidden;rotatable=0;points=[[0,0.5],[1,0.5]];portConstraint=eastwest;fontSize=12;" vertex="1" parent="-KNa5amnTnH-xxa5wo9g-32">
          <mxGeometry y="22" width="260" height="26" as="geometry"/>
        </mxCell>
        <mxCell id="-KNa5amnTnH-xxa5wo9g-34" value="gmt_create                        创建时间" style="text;spacingLeft=4;spacingRight=4;overflow=hidden;rotatable=0;points=[[0,0.5],[1,0.5]];portConstraint=eastwest;fontSize=12;fillColor=#f5f5f5;strokeColor=#666666;fontColor=#333333;" vertex="1" parent="-KNa5amnTnH-xxa5wo9g-32">
          <mxGeometry y="48" width="260" height="26" as="geometry"/>
        </mxCell>
        <mxCell id="-KNa5amnTnH-xxa5wo9g-35" value="gmt_modified                    修改时间" style="text;spacingLeft=4;spacingRight=4;overflow=hidden;rotatable=0;points=[[0,0.5],[1,0.5]];portConstraint=eastwest;fontSize=12;fillColor=#f5f5f5;strokeColor=#666666;fontColor=#333333;" vertex="1" parent="-KNa5amnTnH-xxa5wo9g-32">
          <mxGeometry y="74" width="260" height="26" as="geometry"/>
        </mxCell>
        <mxCell id="-KNa5amnTnH-xxa5wo9g-36" value="line_code                          线路编码（MD5）" style="text;spacingLeft=4;spacingRight=4;overflow=hidden;rotatable=0;points=[[0,0.5],[1,0.5]];portConstraint=eastwest;fontSize=12;fillColor=#f5f5f5;strokeColor=#666666;fontColor=#333333;" vertex="1" parent="-KNa5amnTnH-xxa5wo9g-32">
          <mxGeometry y="100" width="260" height="26" as="geometry"/>
        </mxCell>
        <mxCell id="-KNa5amnTnH-xxa5wo9g-37" value="site_id                               租户" style="text;spacingLeft=4;spacingRight=4;overflow=hidden;rotatable=0;points=[[0,0.5],[1,0.5]];portConstraint=eastwest;fontSize=12;perimeterSpacing=1;fillColor=#f5f5f5;strokeColor=#666666;fontColor=#333333;" vertex="1" parent="-KNa5amnTnH-xxa5wo9g-32">
          <mxGeometry y="126" width="260" height="26" as="geometry"/>
        </mxCell>
        <mxCell id="-KNa5amnTnH-xxa5wo9g-38" value="biz_type                            业务模式" style="text;spacingLeft=4;spacingRight=4;overflow=hidden;rotatable=0;points=[[0,0.5],[1,0.5]];portConstraint=eastwest;fontSize=12;perimeterSpacing=1;fillColor=#f5f5f5;strokeColor=#666666;fontColor=#333333;" vertex="1" parent="-KNa5amnTnH-xxa5wo9g-32">
          <mxGeometry y="152" width="260" height="26" as="geometry"/>
        </mxCell>
        <mxCell id="-KNa5amnTnH-xxa5wo9g-39" value="from_res_code                 起始资源编码" style="text;spacingLeft=4;spacingRight=4;overflow=hidden;rotatable=0;points=[[0,0.5],[1,0.5]];portConstraint=eastwest;fontSize=12;fillColor=#f5f5f5;strokeColor=#666666;fontColor=#333333;" vertex="1" parent="-KNa5amnTnH-xxa5wo9g-32">
          <mxGeometry y="178" width="260" height="26" as="geometry"/>
        </mxCell>
        <mxCell id="-KNa5amnTnH-xxa5wo9g-40" value="from_wave_code              起始波次编码" style="text;strokeColor=#666666;fillColor=#f5f5f5;spacingLeft=4;spacingRight=4;overflow=hidden;rotatable=0;points=[[0,0.5],[1,0.5]];portConstraint=eastwest;fontSize=12;fontColor=#333333;" vertex="1" parent="-KNa5amnTnH-xxa5wo9g-32">
          <mxGeometry y="204" width="260" height="26" as="geometry"/>
        </mxCell>
        <mxCell id="-KNa5amnTnH-xxa5wo9g-41" value="from_division_id               起始地址" style="text;strokeColor=#666666;fillColor=#f5f5f5;spacingLeft=4;spacingRight=4;overflow=hidden;rotatable=0;points=[[0,0.5],[1,0.5]];portConstraint=eastwest;fontSize=12;fontColor=#333333;" vertex="1" parent="-KNa5amnTnH-xxa5wo9g-32">
          <mxGeometry y="230" width="260" height="26" as="geometry"/>
        </mxCell>
        <mxCell id="-KNa5amnTnH-xxa5wo9g-42" value="from_opt_type                  起始点操作方式" style="text;strokeColor=#666666;fillColor=#f5f5f5;spacingLeft=4;spacingRight=4;overflow=hidden;rotatable=0;points=[[0,0.5],[1,0.5]];portConstraint=eastwest;fontSize=12;fontColor=#333333;" vertex="1" parent="-KNa5amnTnH-xxa5wo9g-32">
          <mxGeometry y="256" width="260" height="26" as="geometry"/>
        </mxCell>
        <mxCell id="-KNa5amnTnH-xxa5wo9g-43" value="to_res_code                     目的资源编码" style="text;strokeColor=#666666;fillColor=#f5f5f5;spacingLeft=4;spacingRight=4;overflow=hidden;rotatable=0;points=[[0,0.5],[1,0.5]];portConstraint=eastwest;fontSize=12;fontColor=#333333;" vertex="1" parent="-KNa5amnTnH-xxa5wo9g-32">
          <mxGeometry y="282" width="260" height="26" as="geometry"/>
        </mxCell>
        <mxCell id="-KNa5amnTnH-xxa5wo9g-44" value="to_wave_code                  目的波次编码" style="text;strokeColor=#666666;fillColor=#f5f5f5;spacingLeft=4;spacingRight=4;overflow=hidden;rotatable=0;points=[[0,0.5],[1,0.5]];portConstraint=eastwest;fontSize=12;fontColor=#333333;" vertex="1" parent="-KNa5amnTnH-xxa5wo9g-32">
          <mxGeometry y="308" width="260" height="26" as="geometry"/>
        </mxCell>
        <mxCell id="-KNa5amnTnH-xxa5wo9g-45" value="to_division_id                   目的地址信息" style="text;spacingLeft=4;spacingRight=4;overflow=hidden;rotatable=0;points=[[0,0.5],[1,0.5]];portConstraint=eastwest;fontSize=12;fillColor=#f5f5f5;strokeColor=#666666;fontColor=#333333;" vertex="1" parent="-KNa5amnTnH-xxa5wo9g-32">
          <mxGeometry y="334" width="260" height="26" as="geometry"/>
        </mxCell>
        <mxCell id="-KNa5amnTnH-xxa5wo9g-46" value="cutoff_second                   截单时间" style="text;strokeColor=#666666;fillColor=#f5f5f5;spacingLeft=4;spacingRight=4;overflow=hidden;rotatable=0;points=[[0,0.5],[1,0.5]];portConstraint=eastwest;fontSize=12;fontColor=#333333;" vertex="1" parent="-KNa5amnTnH-xxa5wo9g-32">
          <mxGeometry y="360" width="260" height="26" as="geometry"/>
        </mxCell>
        <mxCell id="-KNa5amnTnH-xxa5wo9g-47" value="delivery_option                 配送类型" style="text;strokeColor=#666666;fillColor=#f5f5f5;spacingLeft=4;spacingRight=4;overflow=hidden;rotatable=0;points=[[0,0.5],[1,0.5]];portConstraint=eastwest;fontSize=12;fontColor=#333333;" vertex="1" parent="-KNa5amnTnH-xxa5wo9g-32">
          <mxGeometry y="386" width="260" height="26" as="geometry"/>
        </mxCell>
        <mxCell id="-KNa5amnTnH-xxa5wo9g-57" value="dim_weight                       重量体积限制" style="text;strokeColor=#666666;fillColor=#f5f5f5;spacingLeft=4;spacingRight=4;overflow=hidden;rotatable=0;points=[[0,0.5],[1,0.5]];portConstraint=eastwest;fontSize=12;fontColor=#333333;" vertex="1" parent="-KNa5amnTnH-xxa5wo9g-32">
          <mxGeometry y="412" width="260" height="26" as="geometry"/>
        </mxCell>
        <mxCell id="-KNa5amnTnH-xxa5wo9g-58" value="payment_type                  支付方式" style="text;strokeColor=#666666;fillColor=#f5f5f5;spacingLeft=4;spacingRight=4;overflow=hidden;rotatable=0;points=[[0,0.5],[1,0.5]];portConstraint=eastwest;fontSize=12;fontColor=#333333;" vertex="1" parent="-KNa5amnTnH-xxa5wo9g-32">
          <mxGeometry y="438" width="260" height="26" as="geometry"/>
        </mxCell>
        <mxCell id="-KNa5amnTnH-xxa5wo9g-49" value="time_zone                         时区" style="text;strokeColor=#666666;fillColor=#f5f5f5;spacingLeft=4;spacingRight=4;overflow=hidden;rotatable=0;points=[[0,0.5],[1,0.5]];portConstraint=eastwest;fontSize=12;fontColor=#333333;" vertex="1" parent="-KNa5amnTnH-xxa5wo9g-32">
          <mxGeometry y="464" width="260" height="26" as="geometry"/>
        </mxCell>
        <mxCell id="-KNa5amnTnH-xxa5wo9g-59" value="agg_sla                            聚合时效" style="text;strokeColor=#666666;fillColor=#f5f5f5;spacingLeft=4;spacingRight=4;overflow=hidden;rotatable=0;points=[[0,0.5],[1,0.5]];portConstraint=eastwest;fontSize=12;fontColor=#333333;" vertex="1" parent="-KNa5amnTnH-xxa5wo9g-32">
          <mxGeometry y="490" width="260" height="26" as="geometry"/>
        </mxCell>
        <mxCell id="-KNa5amnTnH-xxa5wo9g-60" value="agg_capacity                   聚合容量" style="text;strokeColor=#666666;fillColor=#f5f5f5;spacingLeft=4;spacingRight=4;overflow=hidden;rotatable=0;points=[[0,0.5],[1,0.5]];portConstraint=eastwest;fontSize=12;fontColor=#333333;" vertex="1" parent="-KNa5amnTnH-xxa5wo9g-32">
          <mxGeometry y="516" width="260" height="26" as="geometry"/>
        </mxCell>
        <mxCell id="-KNa5amnTnH-xxa5wo9g-50" value="status                               状态" style="text;strokeColor=#666666;fillColor=#f5f5f5;spacingLeft=4;spacingRight=4;overflow=hidden;rotatable=0;points=[[0,0.5],[1,0.5]];portConstraint=eastwest;fontSize=12;fontColor=#333333;" vertex="1" parent="-KNa5amnTnH-xxa5wo9g-32">
          <mxGeometry y="542" width="260" height="26" as="geometry"/>
        </mxCell>
        <mxCell id="-KNa5amnTnH-xxa5wo9g-51" value="ns                                     所属空间" style="text;strokeColor=#666666;fillColor=#f5f5f5;spacingLeft=4;spacingRight=4;overflow=hidden;rotatable=0;points=[[0,0.5],[1,0.5]];portConstraint=eastwest;fontSize=12;fontColor=#333333;" vertex="1" parent="-KNa5amnTnH-xxa5wo9g-32">
          <mxGeometry y="568" width="260" height="26" as="geometry"/>
        </mxCell>
        <mxCell id="-KNa5amnTnH-xxa5wo9g-52" value="batch_id                            变更批次" style="text;strokeColor=#666666;fillColor=#f5f5f5;spacingLeft=4;spacingRight=4;overflow=hidden;rotatable=0;points=[[0,0.5],[1,0.5]];portConstraint=eastwest;fontSize=12;fontColor=#333333;" vertex="1" parent="-KNa5amnTnH-xxa5wo9g-32">
          <mxGeometry y="594" width="260" height="26" as="geometry"/>
        </mxCell>
        <mxCell id="-KNa5amnTnH-xxa5wo9g-53" value="feature                              扩展属性" style="text;strokeColor=#666666;fillColor=#f5f5f5;spacingLeft=4;spacingRight=4;overflow=hidden;rotatable=0;points=[[0,0.5],[1,0.5]];portConstraint=eastwest;fontSize=12;fontColor=#333333;" vertex="1" parent="-KNa5amnTnH-xxa5wo9g-32">
          <mxGeometry y="620" width="260" height="26" as="geometry"/>
        </mxCell>
        <mxCell id="-KNa5amnTnH-xxa5wo9g-54" value="&lt;div&gt;&lt;font style=&quot;font-size: 16px&quot; color=&quot;#ff0000&quot;&gt;模型说明 :&amp;nbsp;&lt;/font&gt;&lt;span style=&quot;font-size: 16px ; color: rgb(255 , 0 , 0)&quot;&gt;存储线路扩展属性&lt;/span&gt;&lt;/div&gt;&lt;div&gt;delivery_option:&amp;nbsp; standard、economic、express&lt;/div&gt;&lt;div&gt;payment_type: COD \ NON-COD&lt;/div&gt;&lt;div&gt;from_opt_type: pickup \drop-off&lt;/div&gt;&lt;div&gt;dimweight: dim-weight属性&lt;/div&gt;" style="text;html=1;align=left;verticalAlign=middle;resizable=0;points=[];autosize=1;" vertex="1" parent="WIyWlLk6GJQsqaUBKTNV-1">
          <mxGeometry x="420" y="400" width="270" height="80" as="geometry"/>
        </mxCell>
        <mxCell id="-KNa5amnTnH-xxa5wo9g-55" value="" style="endArrow=ERzeroToMany;html=1;fontSize=12;entryX=0;entryY=0.5;entryDx=0;entryDy=0;exitX=1;exitY=0.5;exitDx=0;exitDy=0;startArrow=ERmandOne;startFill=0;endFill=1;" edge="1" parent="WIyWlLk6GJQsqaUBKTNV-1" source="9fP7N4kS7fGpAyiYnjO7-2" target="ztJhW-txVgWMC0Fm-MHa-99">
          <mxGeometry width="50" height="50" relative="1" as="geometry">
            <mxPoint x="340" y="130" as="sourcePoint"/>
            <mxPoint x="390" y="80" as="targetPoint"/>
          </mxGeometry>
        </mxCell>
        <mxCell id="-KNa5amnTnH-xxa5wo9g-62" value="&lt;div&gt;&lt;font style=&quot;font-size: 16px&quot; color=&quot;#ff0000&quot;&gt;模型说明 :&amp;nbsp;&lt;/font&gt;&lt;span style=&quot;font-size: 16px ; color: rgb(255 , 0 , 0)&quot;&gt;存储聚合后的线路模型&lt;/span&gt;&lt;/div&gt;&lt;div&gt;&lt;br&gt;&lt;/div&gt;" style="text;html=1;align=left;verticalAlign=middle;resizable=0;points=[];autosize=1;" vertex="1" parent="WIyWlLk6GJQsqaUBKTNV-1">
          <mxGeometry x="815" y="725" width="250" height="30" as="geometry"/>
        </mxCell>
        <mxCell id="-KNa5amnTnH-xxa5wo9g-63" value="" style="endArrow=ERmandOne;html=1;fontSize=12;entryX=0;entryY=0.5;entryDx=0;entryDy=0;exitX=0.5;exitY=0;exitDx=0;exitDy=0;startArrow=ERzeroToMany;startFill=1;endFill=0;" edge="1" parent="WIyWlLk6GJQsqaUBKTNV-1" source="-KNa5amnTnH-xxa5wo9g-2" target="ztJhW-txVgWMC0Fm-MHa-61">
          <mxGeometry width="50" height="50" relative="1" as="geometry">
            <mxPoint x="-100" y="10" as="sourcePoint"/>
            <mxPoint x="-50" y="-40" as="targetPoint"/>
          </mxGeometry>
        </mxCell>
        <mxCell id="-KNa5amnTnH-xxa5wo9g-64" value="" style="endArrow=ERmandOne;html=1;fontSize=12;exitX=0.538;exitY=0.002;exitDx=0;exitDy=0;exitPerimeter=0;startArrow=ERzeroToMany;startFill=1;endFill=0;" edge="1" parent="WIyWlLk6GJQsqaUBKTNV-1" source="9fP7N4kS7fGpAyiYnjO7-0" target="ztJhW-txVgWMC0Fm-MHa-60">
          <mxGeometry width="50" height="50" relative="1" as="geometry">
            <mxPoint x="200" y="40" as="sourcePoint"/>
            <mxPoint x="470" y="-10" as="targetPoint"/>
          </mxGeometry>
        </mxCell>
        <mxCell id="-KNa5amnTnH-xxa5wo9g-65" value="" style="endArrow=ERzeroToMany;html=1;fontSize=12;entryX=-0.004;entryY=0.036;entryDx=0;entryDy=0;entryPerimeter=0;exitX=1;exitY=0.154;exitDx=0;exitDy=0;exitPerimeter=0;startArrow=ERmandOne;startFill=0;endFill=1;" edge="1" parent="WIyWlLk6GJQsqaUBKTNV-1" source="ztJhW-txVgWMC0Fm-MHa-60" target="-KNa5amnTnH-xxa5wo9g-32">
          <mxGeometry width="50" height="50" relative="1" as="geometry">
            <mxPoint x="550" y="40" as="sourcePoint"/>
            <mxPoint x="600" y="-10" as="targetPoint"/>
          </mxGeometry>
        </mxCell>
      </root>
    </mxGraphModel>
  </diagram>
</mxfile>
